<svg width="18" height="18" viewBox="0 0 18 18" fill="none" xmlns="http://www.w3.org/2000/svg">
<path fill-rule="evenodd" clip-rule="evenodd" d="M11.7101 11H12.5001L16.7401 15.26C17.1501 15.67 17.1501 16.34 16.7401 16.75C16.3301 17.16 15.6601 17.16 15.2501 16.75L11.0001 12.5V11.71L10.7301 11.43C9.33014 12.63 7.42014 13.25 5.39014 12.91C2.61014 12.44 0.390137 10.12 0.0501373 7.32C-0.469863 3.09 3.09014 -0.47 7.32014 0.05C10.1201 0.39 12.4401 2.61 12.9101 5.39C13.2501 7.42 12.6301 9.33 11.4301 10.73L11.7101 11ZM2.00014 6.5C2.00014 8.99 4.01014 11 6.50014 11C8.99014 11 11.0001 8.99 11.0001 6.5C11.0001 4.01 8.99014 2 6.50014 2C4.01014 2 2.00014 4.01 2.00014 6.5Z" fill="white"/>
</svg>
